# This file uses centimeters as units for non-parametric coordinates.

mtllib quad.mtl
g default
v -6.813982 6.813982 6.813982
v 6.813982 6.813982 6.813982
v -6.813982 6.813982 -6.813982
v 6.813982 6.813982 -6.813982
vt 0.375000 0.250000
vt 0.625000 0.250000
vt 0.375000 0.500000
vt 0.625000 0.500000
vn 0.000000 -1.000000 0.000000
vn 0.000000 -1.000000 0.000000
vn 0.000000 -1.000000 0.000000
vn 0.000000 -1.000000 0.000000
vn 0.000000 -1.000000 0.000000
vn 0.000000 -1.000000 0.000000
s off
g cube:pCube1
usemtl initialShadingGroup
f 1/1/1 3/3/2 2/2/3
f 3/3/4 4/4/5 2/2/6
