# This file uses centimeters as units for non-parametric coordinates.

mtllib table1.mtl
g default
v -3.587819 0.783907 -0.622151
v -3.587819 0.783908 -3.207952
v 2.253364 0.783908 -3.207952
v 2.253364 0.783907 -0.622151
v 2.259861 0.903787 -3.207952
v 2.259861 0.903786 -0.622151
v 2.259861 0.790404 -0.622151
v 2.259861 0.790405 -3.207952
v 2.253364 0.910283 -0.622151
v 2.253364 0.910284 -3.207952
v -3.587819 0.910284 -3.207952
v -3.587819 0.910283 -0.622151
v -3.587819 0.903787 -3.214450
v 2.253364 0.903787 -3.214450
v 2.253364 0.790405 -3.214450
v -3.587819 0.790405 -3.214450
v 2.253364 0.903786 -0.615654
v -3.587819 0.903786 -0.615654
v -3.587819 0.790404 -0.615654
v 2.253364 0.790404 -0.615654
v -3.594316 0.790404 -0.622151
v -3.594316 0.790405 -3.207952
v -3.594316 0.903786 -0.622151
v -3.594316 0.903787 -3.207952
vt 0.222021 0.498184
vt 0.002365 0.498184
vt 0.002365 0.001992
vt 0.222021 0.001992
vt 0.651006 0.502369
vt 0.651006 0.722025
vt 0.641375 0.722025
vt 0.641375 0.502369
vt 0.229593 0.001992
vt 0.449249 0.001992
vt 0.449249 0.498184
vt 0.229593 0.498184
vt 0.456091 0.498184
vt 0.456091 0.001992
vt 0.465723 0.001992
vt 0.465723 0.498184
vt 0.481687 0.001992
vt 0.481687 0.498184
vt 0.472056 0.498184
vt 0.472056 0.001992
vt 0.624503 0.502368
vt 0.625055 0.501816
vt 0.625055 0.502368
vt 0.625055 0.722025
vt 0.625055 0.722577
vt 0.624503 0.722025
vt 0.641375 0.501816
vt 0.640823 0.502369
vt 0.641375 0.722577
vt 0.640823 0.722025
vt 0.634687 0.502368
vt 0.634687 0.501816
vt 0.635239 0.502368
vt 0.634687 0.722025
vt 0.635239 0.722025
vt 0.634687 0.722577
vt 0.651006 0.501816
vt 0.651558 0.502369
vt 0.651558 0.722025
vt 0.651006 0.722577
vt 0.449801 0.001992
vt 0.449801 0.498184
vt 0.001813 0.498184
vt 0.001813 0.001992
vt 0.229041 0.498184
vt 0.229041 0.001992
vt 0.222573 0.001992
vt 0.222573 0.498184
vn 0.000000 -1.000000 0.000000
vn 0.000000 -1.000000 0.000000
vn 0.000000 -1.000000 0.000000
vn 0.000000 -1.000000 0.000000
vn 1.000000 0.000000 0.000000
vn 1.000000 0.000000 0.000000
vn 1.000000 0.000000 0.000000
vn 1.000000 0.000000 0.000000
vn 0.000000 1.000000 0.000000
vn 0.000000 1.000000 0.000000
vn 0.000000 1.000000 0.000000
vn 0.000000 1.000000 0.000000
vn 0.000000 0.000000 -1.000000
vn 0.000000 0.000000 -1.000000
vn 0.000000 0.000000 -1.000000
vn 0.000000 0.000000 -1.000000
vn 0.000000 0.000000 1.000000
vn 0.000000 0.000000 1.000000
vn 0.000000 0.000000 1.000000
vn 0.000000 0.000000 1.000000
vn -0.577384 -0.577284 0.577384
vn -0.577384 -0.577284 0.577384
vn -0.577384 -0.577284 0.577384
vn -0.577384 -0.577384 -0.577284
vn -0.577384 -0.577384 -0.577284
vn -0.577384 -0.577384 -0.577284
vn 0.577384 -0.577384 -0.577284
vn 0.577384 -0.577384 -0.577284
vn 0.577384 -0.577384 -0.577284
vn 0.577350 -0.577350 0.577350
vn 0.577350 -0.577350 0.577350
vn 0.577350 -0.577350 0.577350
vn -0.577384 0.577284 0.577384
vn -0.577384 0.577284 0.577384
vn -0.577384 0.577284 0.577384
vn -0.577384 0.577384 -0.577284
vn -0.577384 0.577384 -0.577284
vn -0.577384 0.577384 -0.577284
vn 0.577384 0.577384 -0.577284
vn 0.577384 0.577384 -0.577284
vn 0.577384 0.577384 -0.577284
vn 0.577384 0.577384 0.577284
vn 0.577384 0.577384 0.577284
vn 0.577384 0.577384 0.577284
vn -0.707107 0.000000 0.707107
vn -0.707107 0.000000 0.707107
vn -0.707107 0.000000 0.707107
vn -0.707107 0.000000 0.707107
vn -0.707107 0.707107 0.000000
vn -0.707107 0.707107 0.000000
vn -0.707107 0.707107 0.000000
vn -0.707107 0.707107 0.000000
vn -0.707157 0.000000 -0.707057
vn -0.707157 0.000000 -0.707057
vn -0.707157 0.000000 -0.707057
vn -0.707157 0.000000 -0.707057
vn -0.707107 -0.707107 0.000000
vn -0.707107 -0.707107 0.000000
vn -0.707107 -0.707107 0.000000
vn -0.707107 -0.707107 0.000000
vn 0.000000 0.707157 -0.707057
vn 0.000000 0.707157 -0.707057
vn 0.000000 0.707157 -0.707057
vn 0.000000 0.707157 -0.707057
vn 0.707157 0.000000 -0.707057
vn 0.707157 0.000000 -0.707057
vn 0.707157 0.000000 -0.707057
vn 0.707157 0.000000 -0.707057
vn 0.000000 -0.707157 -0.707057
vn 0.000000 -0.707157 -0.707057
vn 0.000000 -0.707157 -0.707057
vn 0.000000 -0.707157 -0.707057
vn 0.707107 0.707107 0.000000
vn 0.707107 0.707107 0.000000
vn 0.707107 0.707107 0.000000
vn 0.707107 0.707107 0.000000
vn 0.707107 0.000000 0.707107
vn 0.707107 0.000000 0.707107
vn 0.707107 0.000000 0.707107
vn 0.707107 0.000000 0.707107
vn 0.707107 -0.707107 0.000000
vn 0.707107 -0.707107 0.000000
vn 0.707107 -0.707107 0.000000
vn 0.707107 -0.707107 0.000000
vn 0.000000 0.707107 0.707107
vn 0.000000 0.707107 0.707107
vn 0.000000 0.707107 0.707107
vn 0.000000 0.707107 0.707107
vn 0.000000 -0.707107 0.707107
vn 0.000000 -0.707107 0.707107
vn 0.000000 -0.707107 0.707107
vn 0.000000 -0.707107 0.707107
vn -1.000000 0.000000 0.000000
vn -1.000000 0.000000 0.000000
vn -1.000000 0.000000 0.000000
vn -1.000000 0.000000 0.000000
s off
g polySurface192 breakfast_room:Mesh
usemtl initialShadingGroup
f 1/1/1 2/2/2 3/3/3 4/4/4
f 5/5/5 6/6/6 7/7/7 8/8/8
f 9/9/9 10/10/10 11/11/11 12/12/12
f 13/13/13 14/14/14 15/15/15 16/16/16
f 17/17/17 18/18/18 19/19/19 20/20/20
f 1/21/21 19/22/22 21/23/23
f 22/24/24 16/25/25 2/26/26
f 15/27/27 8/8/28 3/28/29
f 7/7/30 20/29/31 4/30/32
f 23/31/33 18/32/34 12/33/35
f 24/34/36 11/35/37 13/36/38
f 14/37/39 10/38/40 5/5/41
f 6/6/42 9/39/43 17/40/44
f 19/22/45 18/32/46 23/31/47 21/23/48
f 12/33/49 11/35/50 24/34/51 23/31/52
f 13/36/53 16/25/54 22/24/55 24/34/56
f 2/26/57 1/21/58 21/23/59 22/24/60
f 11/11/61 10/10/62 14/41/63 13/42/64
f 5/5/65 8/8/66 15/27/67 14/37/68
f 3/3/69 2/2/70 16/43/71 15/44/72
f 10/38/73 9/39/74 6/6/75 5/5/76
f 17/40/77 20/29/78 7/7/79 6/6/80
f 4/30/81 3/28/82 8/8/83 7/7/84
f 9/9/85 12/12/86 18/45/87 17/46/88
f 1/1/89 4/4/90 20/47/91 19/48/92
f 23/31/93 24/34/94 22/24/95 21/23/96
