# This file uses centimeters as units for non-parametric coordinates.

mtllib glass.mtl
g default
v -3.856965 -0.041607 -0.035007
v 1.910244 -0.041607 -0.035007
v 1.910244 -0.041607 0.002240
v -3.856965 -0.041607 0.002240
v -3.856965 1.579383 -0.035007
v -3.856965 1.579383 0.002240
v 1.910244 1.579383 0.002240
v 1.910244 1.579383 -0.035007
v -3.856965 -0.041607 0.002240
v -3.856965 1.579383 0.002240
v -3.856965 1.579383 -0.035007
v -3.856965 -0.041607 -0.035007
v 1.910244 -0.041607 -0.035007
v 1.910244 1.579383 -0.035007
v 1.910244 1.579383 0.002240
v 1.910244 -0.041607 0.002240
v 1.910244 1.579383 -0.035007
v 1.910244 -0.041607 -0.035007
v -3.856965 -0.041607 -0.035007
v -3.856965 1.579383 -0.035007
v -3.856965 1.579383 0.002240
v -3.856965 -0.041607 0.002240
v 1.910244 -0.041607 0.002240
v 1.910244 1.579383 0.002240
v -6.271650 5.626274 -0.032900
v 2.523353 5.626274 -0.032900
v 2.523353 5.626274 0.004346
v -6.271650 5.626274 0.004346
v -6.271650 7.247263 -0.032900
v -6.271650 7.247263 0.004346
v 2.523353 7.247263 0.004346
v 2.523353 7.247263 -0.032900
v -6.271650 5.626274 0.004346
v -6.271650 7.247263 0.004346
v -6.271650 7.247263 -0.032900
v -6.271650 5.626274 -0.032900
v 2.523353 5.626274 -0.032900
v 2.523353 7.247263 -0.032900
v 2.523353 7.247263 0.004346
v 2.523353 5.626274 0.004346
v -6.271650 5.626274 -0.032900
v -6.271650 7.247263 -0.032900
v 2.523353 7.247263 -0.032900
v 2.523353 5.626274 -0.032900
v -6.271650 7.247263 0.004346
v -6.271650 5.626274 0.004346
v 2.523353 5.626274 0.004346
v 2.523353 7.247263 0.004346
v 2.569813 5.626274 -2.967471
v 2.569814 5.626274 0.000972
v 2.538507 5.626274 0.000971
v 2.538507 5.626274 -2.967471
v 2.569813 7.247263 -2.967471
v 2.538507 7.247263 -2.967471
v 2.538507 7.247263 0.000971
v 2.569814 7.247263 0.000972
v 2.538507 5.626274 -2.967471
v 2.538507 7.247263 -2.967471
v 2.569813 7.247263 -2.967471
v 2.569813 5.626274 -2.967471
v 2.569814 5.626274 0.000972
v 2.569814 7.247263 0.000972
v 2.538507 7.247263 0.000971
v 2.538507 5.626274 0.000971
v 2.569813 5.626274 -2.967471
v 2.569813 7.247263 -2.967471
v 2.569814 7.247263 0.000972
v 2.569814 5.626274 0.000972
v 2.538507 7.247263 -2.967471
v 2.538507 5.626274 -2.967471
v 2.538507 5.626274 0.000971
v 2.538507 7.247263 0.000971
vt 0.000000 0.000000
vt 0.000000 0.000000
vt 0.000000 0.000000
vt 0.000000 0.000000
vt 0.000000 0.000000
vt 0.000000 0.000000
vt 0.000000 0.000000
vt 0.000000 0.000000
vt 0.000000 0.000000
vt 0.000000 0.000000
vt 0.000000 0.000000
vt 0.000000 0.000000
vt 0.000000 0.000000
vt 0.000000 0.000000
vt 0.000000 0.000000
vt 0.000000 0.000000
vt 0.000000 0.000000
vt 0.000000 0.000000
vt 0.000000 0.000000
vt 0.000000 0.000000
vt 0.000000 0.000000
vt 0.000000 0.000000
vt 0.000000 0.000000
vt 0.000000 0.000000
vt 0.000000 0.000000
vt 0.000000 0.000000
vt 0.000000 0.000000
vt 0.000000 0.000000
vt 0.000000 0.000000
vt 0.000000 0.000000
vt 0.000000 0.000000
vt 0.000000 0.000000
vt 0.000000 0.000000
vt 0.000000 0.000000
vt 0.000000 0.000000
vt 0.000000 0.000000
vt 0.000000 0.000000
vt 0.000000 0.000000
vt 0.000000 0.000000
vt 0.000000 0.000000
vt 0.000000 0.000000
vt 0.000000 0.000000
vt 0.000000 0.000000
vt 0.000000 0.000000
vt 0.000000 0.000000
vt 0.000000 0.000000
vt 0.000000 0.000000
vt 0.000000 0.000000
vt 0.000000 0.000000
vt 0.000000 0.000000
vt 0.000000 0.000000
vt 0.000000 0.000000
vt 0.000000 0.000000
vt 0.000000 0.000000
vt 0.000000 0.000000
vt 0.000000 0.000000
vt 0.000000 0.000000
vt 0.000000 0.000000
vt 0.000000 0.000000
vt 0.000000 0.000000
vt 0.000000 0.000000
vt 0.000000 0.000000
vt 0.000000 0.000000
vt 0.000000 0.000000
vt 0.000000 0.000000
vt 0.000000 0.000000
vt 0.000000 0.000000
vt 0.000000 0.000000
vt 0.000000 0.000000
vt 0.000000 0.000000
vt 0.000000 0.000000
vt 0.000000 0.000000
vn 0.000000 -1.000000 0.000000
vn 0.000000 -1.000000 0.000000
vn 0.000000 -1.000000 0.000000
vn 0.000000 -1.000000 0.000000
vn 0.000000 -1.000000 0.000000
vn 0.000000 -1.000000 0.000000
vn 0.000000 1.000000 0.000000
vn 0.000000 1.000000 0.000000
vn 0.000000 1.000000 0.000000
vn 0.000000 1.000000 0.000000
vn 0.000000 1.000000 0.000000
vn 0.000000 1.000000 0.000000
vn -1.000000 0.000000 0.000000
vn -1.000000 0.000000 0.000000
vn -1.000000 0.000000 0.000000
vn -1.000000 0.000000 0.000000
vn -1.000000 0.000000 0.000000
vn -1.000000 0.000000 0.000000
vn 1.000000 0.000000 0.000000
vn 1.000000 0.000000 0.000000
vn 1.000000 0.000000 0.000000
vn 1.000000 0.000000 0.000000
vn 1.000000 0.000000 0.000000
vn 1.000000 0.000000 0.000000
vn 0.000000 0.000000 -1.000000
vn 0.000000 0.000000 -1.000000
vn 0.000000 0.000000 -1.000000
vn 0.000000 0.000000 -1.000000
vn 0.000000 0.000000 -1.000000
vn 0.000000 0.000000 -1.000000
vn 0.000000 0.000000 1.000000
vn 0.000000 0.000000 1.000000
vn 0.000000 0.000000 1.000000
vn 0.000000 0.000000 1.000000
vn 0.000000 0.000000 1.000000
vn 0.000000 0.000000 1.000000
vn 0.000000 -1.000000 0.000000
vn 0.000000 -1.000000 0.000000
vn 0.000000 -1.000000 0.000000
vn 0.000000 -1.000000 0.000000
vn 0.000000 -1.000000 0.000000
vn 0.000000 -1.000000 0.000000
vn 0.000000 1.000000 0.000000
vn 0.000000 1.000000 0.000000
vn 0.000000 1.000000 0.000000
vn 0.000000 1.000000 0.000000
vn 0.000000 1.000000 0.000000
vn 0.000000 1.000000 0.000000
vn -1.000000 0.000000 0.000000
vn -1.000000 0.000000 0.000000
vn -1.000000 0.000000 0.000000
vn -1.000000 0.000000 0.000000
vn -1.000000 0.000000 0.000000
vn -1.000000 0.000000 0.000000
vn 1.000000 0.000000 0.000000
vn 1.000000 0.000000 0.000000
vn 1.000000 0.000000 0.000000
vn 1.000000 0.000000 0.000000
vn 1.000000 0.000000 0.000000
vn 1.000000 0.000000 0.000000
vn 0.000000 0.000000 -1.000000
vn 0.000000 0.000000 -1.000000
vn 0.000000 0.000000 -1.000000
vn 0.000000 0.000000 -1.000000
vn 0.000000 0.000000 -1.000000
vn 0.000000 0.000000 -1.000000
vn 0.000000 0.000000 1.000000
vn 0.000000 0.000000 1.000000
vn 0.000000 0.000000 1.000000
vn 0.000000 0.000000 1.000000
vn 0.000000 0.000000 1.000000
vn 0.000000 0.000000 1.000000
vn 0.000000 -1.000000 0.000000
vn 0.000000 -1.000000 0.000000
vn 0.000000 -1.000000 0.000000
vn 0.000000 -1.000000 0.000000
vn 0.000000 -1.000000 0.000000
vn 0.000000 -1.000000 0.000000
vn 0.000000 1.000000 0.000000
vn 0.000000 1.000000 0.000000
vn 0.000000 1.000000 0.000000
vn 0.000000 1.000000 0.000000
vn 0.000000 1.000000 0.000000
vn 0.000000 1.000000 0.000000
vn 0.000000 0.000000 -1.000000
vn 0.000000 0.000000 -1.000000
vn 0.000000 0.000000 -1.000000
vn 0.000000 0.000000 -1.000000
vn 0.000000 0.000000 -1.000000
vn 0.000000 0.000000 -1.000000
vn 0.000000 0.000000 1.000000
vn 0.000000 0.000000 1.000000
vn 0.000000 0.000000 1.000000
vn 0.000000 0.000000 1.000000
vn 0.000000 0.000000 1.000000
vn 0.000000 0.000000 1.000000
vn 1.000000 0.000000 0.000000
vn 1.000000 0.000000 0.000000
vn 1.000000 0.000000 0.000000
vn 1.000000 0.000000 0.000000
vn 1.000000 0.000000 0.000000
vn 1.000000 0.000000 0.000000
vn -1.000000 0.000000 0.000000
vn -1.000000 0.000000 0.000000
vn -1.000000 0.000000 0.000000
vn -1.000000 0.000000 0.000000
vn -1.000000 0.000000 0.000000
vn -1.000000 0.000000 0.000000
s off
g Mesh014:Mesh
usemtl initialShadingGroup
f 1/1/1 2/2/2 3/3/3
f 1/1/4 3/3/5 4/4/6
f 5/5/7 6/6/8 7/7/9
f 5/5/10 7/7/11 8/8/12
f 9/9/13 10/10/14 11/11/15
f 9/9/16 11/11/17 12/12/18
f 13/13/19 14/14/20 15/15/21
f 13/13/22 15/15/23 16/16/24
f 17/17/25 18/18/26 19/19/27
f 17/17/28 19/19/29 20/20/30
f 21/21/31 22/22/32 23/23/33
f 21/21/34 23/23/35 24/24/36
f 25/25/37 26/26/38 27/27/39
f 25/25/40 27/27/41 28/28/42
f 29/29/43 30/30/44 31/31/45
f 29/29/46 31/31/47 32/32/48
f 33/33/49 34/34/50 35/35/51
f 33/33/52 35/35/53 36/36/54
f 37/37/55 38/38/56 39/39/57
f 37/37/58 39/39/59 40/40/60
f 41/41/61 42/42/62 43/43/63
f 41/41/64 43/43/65 44/44/66
f 45/45/67 46/46/68 47/47/69
f 45/45/70 47/47/71 48/48/72
f 49/49/73 50/50/74 51/51/75
f 49/49/76 51/51/77 52/52/78
f 53/53/79 54/54/80 55/55/81
f 53/53/82 55/55/83 56/56/84
f 57/57/85 58/58/86 59/59/87
f 57/57/88 59/59/89 60/60/90
f 61/61/91 62/62/92 63/63/93
f 61/61/94 63/63/95 64/64/96
f 65/65/97 66/66/98 67/67/99
f 65/65/100 67/67/101 68/68/102
f 69/69/103 70/70/104 71/71/105
f 69/69/106 71/71/107 72/72/108
