# This file uses centimeters as units for non-parametric coordinates.

mtllib cbox_ceiling.mtl
g default
v 27.800001 27.596627 27.965000
v -27.800001 27.596644 -27.955000
v 27.800001 27.500005 -27.955000
v -6.500000 27.499995 5.244999
v 6.499998 27.499997 -5.254999
v -6.500000 27.499997 -5.254999
v -27.800001 27.596627 27.965000
v 6.499998 27.499995 5.244999
vn 0.000000 -1.000000 0.000000
vn 0.000000 -1.000000 0.000000
vn 0.000000 -1.000000 0.000000
vn 0.000000 1.000000 0.000000
vn 0.000000 1.000000 0.000000
vn 0.000000 1.000000 0.000000
vn 0.000000 -1.000000 0.000000
vn 0.000000 -1.000000 0.000000
vn 0.000000 -1.000000 0.000000
vn 0.000000 1.000000 0.000000
vn 0.000000 1.000000 0.000000
vn 0.000000 1.000000 0.000000
s off
g cbox_ceiling:Mesh
usemtl initialShadingGroup
f 1//1 2//2 3//3
f 4//4 5//5 6//6
f 1//7 7//8 2//9
f 4//10 8//11 5//12
