# This file uses centimeters as units for non-parametric coordinates.

mtllib cbox_smallbox.mtl
g default
v -18.967607 -10.949999 -15.395966
v -23.767607 -10.950004 0.604033
v -7.967607 -10.950005 5.304034
v -2.967607 -10.950000 -10.495966
v -2.967607 -27.450000 -10.495970
v -2.967607 -10.950000 -10.495966
v -7.967607 -10.950005 5.304034
v -7.967607 -27.450005 5.304030
v -18.967607 -27.449998 -15.395970
v -18.967607 -10.949999 -15.395966
v -2.967607 -10.950000 -10.495966
v -2.967607 -27.450000 -10.495970
v -23.767607 -27.450004 0.604029
v -23.767607 -10.950004 0.604033
v -18.967607 -10.949999 -15.395966
v -18.967607 -27.449998 -15.395970
v -7.967607 -27.450005 5.304030
v -7.967607 -10.950005 5.304034
v -23.767607 -10.950004 0.604033
v -23.767607 -27.450004 0.604029
v -2.967607 -27.450000 -10.495970
v -7.967607 -27.450005 5.304030
v -23.767607 -27.450004 0.604029
v -18.967607 -27.449998 -15.395970
vn 0.000000 1.000000 0.000000
vn 0.000000 1.000000 0.000000
vn 0.000000 1.000000 0.000000
vn 0.000000 1.000000 0.000000
vn 0.000000 1.000000 0.000000
vn 0.000000 1.000000 0.000000
vn 0.953403 -0.000000 0.301701
vn 0.953403 -0.000000 0.301701
vn 0.953403 -0.000000 0.301701
vn 0.953403 -0.000000 0.301701
vn 0.953403 -0.000000 0.301701
vn 0.953403 -0.000000 0.301701
vn 0.292793 0.000000 -0.956176
vn 0.292793 0.000000 -0.956176
vn 0.292793 0.000000 -0.956176
vn 0.292793 0.000000 -0.956176
vn 0.292793 0.000000 -0.956176
vn 0.292793 0.000000 -0.956176
vn -0.957837 0.000000 -0.287311
vn -0.957837 0.000000 -0.287311
vn -0.957837 0.000000 -0.287311
vn -0.957837 0.000000 -0.287311
vn -0.957837 0.000000 -0.287311
vn -0.957837 0.000000 -0.287311
vn -0.285099 0.000000 0.958498
vn -0.285099 0.000000 0.958498
vn -0.285099 0.000000 0.958498
vn -0.285099 0.000000 0.958498
vn -0.285099 0.000000 0.958498
vn -0.285099 0.000000 0.958498
vn 0.000000 -1.000000 0.000000
vn 0.000000 -1.000000 0.000000
vn 0.000000 -1.000000 0.000000
vn 0.000000 -1.000000 0.000000
vn 0.000000 -1.000000 0.000000
vn 0.000000 -1.000000 0.000000
s off
g cbox_smallbox:Mesh
usemtl initialShadingGroup
f 1//1 2//2 3//3
f 1//4 3//5 4//6
f 5//7 6//8 7//9
f 5//10 7//11 8//12
f 9//13 10//14 11//15
f 9//16 11//17 12//18
f 13//19 14//20 15//21
f 13//22 15//23 16//24
f 17//25 18//26 19//27
f 17//28 19//29 20//30
f 21//31 22//32 23//33
f 21//34 23//35 24//36
