# This file uses centimeters as units for non-parametric coordinates.

mtllib back.mtl
g default
v -1.000000 0.000000 -1.000000
v 1.000000 0.000000 -1.000000
v 1.000000 2.000000 -1.000000
v -1.000000 2.000000 -1.000000
vt 0.998008 0.001992
vt 0.998008 0.998008
vt 0.001992 0.001992
vt 0.001992 0.998008
vn 0.000000 0.000000 1.000000
vn 0.000000 0.000000 1.000000
vn 0.000000 0.000000 1.000000
vn 0.000000 0.000000 1.000000
vn 0.000000 0.000000 1.000000
vn 0.000000 0.000000 1.000000
s off
g back:backWall
usemtl initialShadingGroup
f 2/1/1 3/2/2 1/3/3
f 1/3/4 3/2/5 4/4/6
