# This file uses centimeters as units for non-parametric coordinates.

mtllib cbox_back.mtl
g default
v 27.320000 -27.440002 27.499995
v -27.639999 27.440001 27.500005
v 27.960003 27.440001 27.500005
v -27.639999 -27.440002 27.499995
vn 0.000000 0.000000 -1.000000
vn 0.000000 0.000000 -1.000000
vn 0.000000 0.000000 -1.000000
vn 0.000000 0.000000 -1.000000
vn 0.000000 0.000000 -1.000000
vn 0.000000 0.000000 -1.000000
s off
g cbox_back:Mesh
usemtl initialShadingGroup
f 1//1 2//2 3//3
f 1//4 4//5 2//6
