# This file uses centimeters as units for non-parametric coordinates.

mtllib cbox_ceiling.mtl
g default
v 27.800001 27.596626 27.965000
v -27.800001 27.596643 -27.955000
v 27.800001 27.500006 -27.955000
v -27.800001 27.596626 27.965000
vn 0.000000 -1.000000 0.000000
vn 0.000000 -1.000000 0.000000
vn 0.000000 -1.000000 0.000000
vn 0.000000 -1.000000 0.000000
vn 0.000000 -1.000000 0.000000
vn 0.000000 -1.000000 0.000000
s off
g polySurface1 cbox_ceiling:Mesh
usemtl initialShadingGroup
f 1//1 2//2 3//3
f 1//4 4//5 2//6
