# This file uses centimeters as units for non-parametric coordinates.

mtllib cbox_smallbox.mtl
g default
v -13.541007 -10.949999 -18.780121
v -21.350922 -10.950004 -4.013768
v -6.761394 -10.950005 3.659283
v 1.205967 -10.950000 -10.872103
v 1.205968 -27.450001 -10.872107
v 1.205967 -10.950000 -10.872103
v -6.761394 -10.950005 3.659283
v -6.761393 -27.450005 3.659278
v -13.541007 -27.449999 -18.780127
v -13.541007 -10.949999 -18.780121
v 1.205967 -10.950000 -10.872103
v 1.205968 -27.450001 -10.872107
v -21.350920 -27.450005 -4.013772
v -21.350922 -10.950004 -4.013768
v -13.541007 -10.949999 -18.780121
v -13.541007 -27.449999 -18.780127
v -6.761393 -27.450005 3.659278
v -6.761394 -10.950005 3.659283
v -21.350922 -10.950004 -4.013768
v -21.350920 -27.450005 -4.013772
v 1.205968 -27.450001 -10.872107
v -6.761393 -27.450005 3.659278
v -21.350920 -27.450005 -4.013772
v -13.541007 -27.449999 -18.780127
vn 0.000000 1.000000 0.000000
vn 0.000000 1.000000 0.000000
vn 0.000000 1.000000 0.000000
vn 0.000000 1.000000 0.000000
vn 0.000000 1.000000 0.000000
vn 0.000000 1.000000 0.000000
vn 0.876854 -0.000000 0.480757
vn 0.876854 -0.000000 0.480757
vn 0.876854 -0.000000 0.480757
vn 0.876854 -0.000000 0.480757
vn 0.876854 -0.000000 0.480757
vn 0.876854 -0.000000 0.480757
vn 0.472556 0.000000 -0.881301
vn 0.472556 0.000000 -0.881301
vn 0.472556 0.000000 -0.881301
vn 0.472556 0.000000 -0.881301
vn 0.472556 0.000000 -0.881301
vn 0.472556 0.000000 -0.881301
vn -0.883993 0.000000 -0.467500
vn -0.883993 0.000000 -0.467500
vn -0.883993 0.000000 -0.467500
vn -0.883993 0.000000 -0.467500
vn -0.883993 0.000000 -0.467500
vn -0.883993 0.000000 -0.467500
vn -0.465458 0.000000 0.885070
vn -0.465458 0.000000 0.885070
vn -0.465458 0.000000 0.885070
vn -0.465458 0.000000 0.885070
vn -0.465458 0.000000 0.885070
vn -0.465458 0.000000 0.885070
vn 0.000000 -1.000000 0.000000
vn 0.000000 -1.000000 0.000000
vn 0.000000 -1.000000 0.000000
vn 0.000000 -1.000000 0.000000
vn 0.000000 -1.000000 0.000000
vn 0.000000 -1.000000 0.000000
s off
g cbox_smallbox3:Mesh
usemtl initialShadingGroup
f 1//1 2//2 3//3
f 1//4 3//5 4//6
f 5//7 6//8 7//9
f 5//10 7//11 8//12
f 9//13 10//14 11//15
f 9//16 11//17 12//18
f 13//19 14//20 15//21
f 13//22 15//23 16//24
f 17//25 18//26 19//27
f 17//28 19//29 20//30
f 21//31 22//32 23//33
f 21//34 23//35 24//36
