# This file uses centimeters as units for non-parametric coordinates.

mtllib cbox_largebox.mtl
g default
v 12.191993 5.499998 -2.754892
v -3.608006 5.499996 2.145108
v 1.291994 5.499990 18.145107
v 17.091995 5.499992 13.145108
v 12.191993 -27.500002 -2.754903
v 12.191993 5.499998 -2.754892
v 17.091995 5.499992 13.145108
v 17.091995 -27.500008 13.145098
v 17.091995 -27.500008 13.145098
v 17.091995 5.499992 13.145108
v 1.291994 5.499990 18.145107
v 1.291994 -27.500010 18.145100
v 1.291994 -27.500010 18.145100
v 1.291994 5.499990 18.145107
v -3.608006 5.499996 2.145108
v -3.608006 -27.500006 2.145097
v -3.608006 -27.500006 2.145097
v -3.608006 5.499996 2.145108
v 12.191993 5.499998 -2.754892
v 12.191993 -27.500002 -2.754903
v 17.091995 -27.500008 13.145098
v 1.291994 -27.500010 18.145100
v -3.608006 -27.500006 2.145097
v 12.191993 -27.500002 -2.754903
vn 0.000000 1.000000 0.000000
vn 0.000000 1.000000 0.000000
vn 0.000000 1.000000 0.000000
vn 0.000000 1.000000 0.000000
vn 0.000000 1.000000 0.000000
vn 0.000000 1.000000 0.000000
vn 0.955647 0.000000 -0.294515
vn 0.955647 0.000000 -0.294515
vn 0.955647 0.000000 -0.294515
vn 0.955647 0.000000 -0.294515
vn 0.955647 0.000000 -0.294515
vn 0.955647 0.000000 -0.294515
vn 0.301701 -0.000000 0.953403
vn 0.301701 -0.000000 0.953403
vn 0.301701 -0.000000 0.953403
vn 0.301701 -0.000000 0.953403
vn 0.301701 -0.000000 0.953403
vn 0.301701 -0.000000 0.953403
vn -0.956176 0.000000 0.292793
vn -0.956176 0.000000 0.292793
vn -0.956176 0.000000 0.292793
vn -0.956176 0.000000 0.292793
vn -0.956176 0.000000 0.292793
vn -0.956176 0.000000 0.292793
vn -0.296207 0.000000 -0.955124
vn -0.296207 0.000000 -0.955124
vn -0.296207 0.000000 -0.955124
vn -0.296207 0.000000 -0.955124
vn -0.296207 0.000000 -0.955124
vn -0.296207 0.000000 -0.955124
vn 0.000000 -1.000000 0.000000
vn 0.000000 -1.000000 0.000000
vn 0.000000 -1.000000 0.000000
vn 0.000000 -1.000000 0.000000
vn 0.000000 -1.000000 0.000000
vn 0.000000 -1.000000 0.000000
s off
g cbox_largebox3:Mesh
usemtl initialShadingGroup
f 1//1 2//2 3//3
f 1//4 3//5 4//6
f 5//7 6//8 7//9
f 5//10 7//11 8//12
f 9//13 10//14 11//15
f 9//16 11//17 12//18
f 13//19 14//20 15//21
f 13//22 15//23 16//24
f 17//25 18//26 19//27
f 17//28 19//29 20//30
f 21//31 22//32 23//33
f 21//34 23//35 24//36
